<mxfile host="app.diagrams.net" modified="2024-03-04T09:19:49.901Z" agent="Mozilla/5.0 (Windows NT 10.0; Win64; x64; rv:123.0) Gecko/20100101 Firefox/123.0" version="24.0.1" etag="Eq8eDcgk5IsGviYJMTdZ" type="github">
  <diagram name="Side-1" id="kGTffMqe6Cg32YPDPtVS">
    <mxGraphModel>
      <root>
        <mxCell id="0" />
        <mxCell id="1" parent="0" />
      </root>
    </mxGraphModel>
  </diagram>
</mxfile>
